<svg id="visual" viewBox="0 0 900 600" width="900" height="600" xmlns="http://www.w3.org/2000/svg" xmlns:xlink="http://www.w3.org/1999/xlink" version="1.1"><path d="M0 79L13.7 84C27.3 89 54.7 99 82 105C109.3 111 136.7 113 163.8 108C191 103 218 91 245.2 82C272.3 73 299.7 67 327 64C354.3 61 381.7 61 409 68C436.3 75 463.7 89 491 93C518.3 97 545.7 91 573 81C600.3 71 627.7 57 654.8 57C682 57 709 71 736.2 79C763.3 87 790.7 89 818 85C845.3 81 872.7 71 886.3 66L900 61L900 0L886.3 0C872.7 0 845.3 0 818 0C790.7 0 763.3 0 736.2 0C709 0 682 0 654.8 0C627.7 0 600.3 0 573 0C545.7 0 518.3 0 491 0C463.7 0 436.3 0 409 0C381.7 0 354.3 0 327 0C299.7 0 272.3 0 245.2 0C218 0 191 0 163.8 0C136.7 0 109.3 0 82 0C54.7 0 27.3 0 13.7 0L0 0Z" fill="#ffffff"></path><path d="M0 169L13.7 174C27.3 179 54.7 189 82 194C109.3 199 136.7 199 163.8 192C191 185 218 171 245.2 164C272.3 157 299.7 157 327 150C354.3 143 381.7 129 409 130C436.3 131 463.7 147 491 150C518.3 153 545.7 143 573 130C600.3 117 627.7 101 654.8 105C682 109 709 133 736.2 146C763.3 159 790.7 161 818 151C845.3 141 872.7 119 886.3 108L900 97L900 59L886.3 64C872.7 69 845.3 79 818 83C790.7 87 763.3 85 736.2 77C709 69 682 55 654.8 55C627.7 55 600.3 69 573 79C545.7 89 518.3 95 491 91C463.7 87 436.3 73 409 66C381.7 59 354.3 59 327 62C299.7 65 272.3 71 245.2 80C218 89 191 101 163.8 106C136.7 111 109.3 109 82 103C54.7 97 27.3 87 13.7 82L0 77Z" fill="#ffffff"></path><path d="M0 301L13.7 316C27.3 331 54.7 361 82 365C109.3 369 136.7 347 163.8 344C191 341 218 357 245.2 362C272.3 367 299.7 361 327 362C354.3 363 381.7 371 409 376C436.3 381 463.7 383 491 374C518.3 365 545.7 345 573 329C600.3 313 627.7 301 654.8 307C682 313 709 337 736.2 331C763.3 325 790.7 289 818 289C845.3 289 872.7 325 886.3 343L900 361L900 95L886.3 106C872.7 117 845.3 139 818 149C790.7 159 763.3 157 736.2 144C709 131 682 107 654.8 103C627.7 99 600.3 115 573 128C545.7 141 518.3 151 491 148C463.7 145 436.3 129 409 128C381.7 127 354.3 141 327 148C299.7 155 272.3 155 245.2 162C218 169 191 183 163.8 190C136.7 197 109.3 197 82 192C54.7 187 27.3 177 13.7 172L0 167Z" fill="#ffffff"></path><path d="M0 487L13.7 488C27.3 489 54.7 491 82 488C109.3 485 136.7 477 163.8 474C191 471 218 473 245.2 483C272.3 493 299.7 511 327 510C354.3 509 381.7 489 409 478C436.3 467 463.7 465 491 463C518.3 461 545.7 459 573 471C600.3 483 627.7 509 654.8 512C682 515 709 495 736.2 486C763.3 477 790.7 479 818 478C845.3 477 872.7 473 886.3 471L900 469L900 359L886.3 341C872.7 323 845.3 287 818 287C790.7 287 763.3 323 736.2 329C709 335 682 311 654.8 305C627.7 299 600.3 311 573 327C545.7 343 518.3 363 491 372C463.7 381 436.3 379 409 374C381.7 369 354.3 361 327 360C299.7 359 272.3 365 245.2 360C218 355 191 339 163.8 342C136.7 345 109.3 367 82 363C54.7 359 27.3 329 13.7 314L0 299Z" fill="#f6f6f6"></path><path d="M0 601L13.7 601C27.3 601 54.7 601 82 601C109.3 601 136.7 601 163.8 601C191 601 218 601 245.2 601C272.3 601 299.7 601 327 601C354.3 601 381.7 601 409 601C436.3 601 463.7 601 491 601C518.3 601 545.7 601 573 601C600.3 601 627.7 601 654.8 601C682 601 709 601 736.2 601C763.3 601 790.7 601 818 601C845.3 601 872.7 601 886.3 601L900 601L900 467L886.3 469C872.7 471 845.3 475 818 476C790.7 477 763.3 475 736.2 484C709 493 682 513 654.8 510C627.7 507 600.3 481 573 469C545.7 457 518.3 459 491 461C463.7 463 436.3 465 409 476C381.7 487 354.3 507 327 508C299.7 509 272.3 491 245.2 481C218 471 191 469 163.8 472C136.7 475 109.3 483 82 486C54.7 489 27.3 487 13.7 486L0 485Z" fill="#eeeeee"></path></svg>